ModelForces
version=1
nRows=4
nColumns=157
inDegrees=no

This file contains the forces exerted on a model during a simulation.

A force is a generalized force, meaning that it can be either a force (N) or a torque (Nm).

Units are S.I. units (second, meters, Newtons, ...)
Angles are in degrees.

endheader
time	glut_med1_r	glut_med2_r	glut_med3_r	glut_min1_r	glut_min2_r	glut_min3_r	semimem_r	semiten_r	bifemlh_r	bifemsh_r	sar_r	add_long_r	add_brev_r	add_mag1_r	add_mag2_r	add_mag3_r	tfl_r	pect_r	grac_r	glut_max1_r	glut_max2_r	glut_max3_r	iliacus_r	psoas_r	quad_fem_r	gem_r	peri_r	rect_fem_r	vas_med_r	vas_int_r	vas_lat_r	med_gas_r	lat_gas_r	soleus_r	tib_post_r	flex_dig_r	flex_hal_r	tib_ant_r	per_brev_r	per_long_r	per_tert_r	ext_dig_r	ext_hal_r	glut_med1_l	glut_med2_l	glut_med3_l	glut_min1_l	glut_min2_l	glut_min3_l	semimem_l	semiten_l	bifemlh_l	bifemsh_l	sar_l	add_long_l	add_brev_l	add_mag1_l	add_mag2_l	add_mag3_l	tfl_l	pect_l	grac_l	glut_max1_l	glut_max2_l	glut_max3_l	iliacus_l	psoas_l	quad_fem_l	gem_l	peri_l	rect_fem_l	vas_med_l	vas_int_l	vas_lat_l	med_gas_l	lat_gas_l	soleus_l	tib_post_l	flex_dig_l	flex_hal_l	tib_ant_l	per_brev_l	per_long_l	per_tert_l	ext_dig_l	ext_hal_l	ercspn_r	ercspn_l	intobl_r	intobl_l	extobl_r	extobl_l	femur_lat_meniscii_r.femur_lat_r.force.X	femur_lat_meniscii_r.femur_lat_r.force.Y	femur_lat_meniscii_r.femur_lat_r.force.Z	femur_lat_meniscii_r.femur_lat_r.torque.X	femur_lat_meniscii_r.femur_lat_r.torque.Y	femur_lat_meniscii_r.femur_lat_r.torque.Z	femur_lat_meniscii_r.meniscus_lat_r.force.X	femur_lat_meniscii_r.meniscus_lat_r.force.Y	femur_lat_meniscii_r.meniscus_lat_r.force.Z	femur_lat_meniscii_r.meniscus_lat_r.torque.X	femur_lat_meniscii_r.meniscus_lat_r.torque.Y	femur_lat_meniscii_r.meniscus_lat_r.torque.Z	femur_med_meniscii_r.femur_med_r.force.X	femur_med_meniscii_r.femur_med_r.force.Y	femur_med_meniscii_r.femur_med_r.force.Z	femur_med_meniscii_r.femur_med_r.torque.X	femur_med_meniscii_r.femur_med_r.torque.Y	femur_med_meniscii_r.femur_med_r.torque.Z	femur_med_meniscii_r.meniscus_med_r.force.X	femur_med_meniscii_r.meniscus_med_r.force.Y	femur_med_meniscii_r.meniscus_med_r.force.Z	femur_med_meniscii_r.meniscus_med_r.torque.X	femur_med_meniscii_r.meniscus_med_r.torque.Y	femur_med_meniscii_r.meniscus_med_r.torque.Z	femur_med_tibia_r.tibia_upper_r.force.X	femur_med_tibia_r.tibia_upper_r.force.Y	femur_med_tibia_r.tibia_upper_r.force.Z	femur_med_tibia_r.tibia_upper_r.torque.X	femur_med_tibia_r.tibia_upper_r.torque.Y	femur_med_tibia_r.tibia_upper_r.torque.Z	femur_med_tibia_r.femur_med_r.force.X	femur_med_tibia_r.femur_med_r.force.Y	femur_med_tibia_r.femur_med_r.force.Z	femur_med_tibia_r.femur_med_r.torque.X	femur_med_tibia_r.femur_med_r.torque.Y	femur_med_tibia_r.femur_med_r.torque.Z	femur_lat_tibia_r.tibia_upper_r.force.X	femur_lat_tibia_r.tibia_upper_r.force.Y	femur_lat_tibia_r.tibia_upper_r.force.Z	femur_lat_tibia_r.tibia_upper_r.torque.X	femur_lat_tibia_r.tibia_upper_r.torque.Y	femur_lat_tibia_r.tibia_upper_r.torque.Z	femur_lat_tibia_r.femur_lat_r.force.X	femur_lat_tibia_r.femur_lat_r.force.Y	femur_lat_tibia_r.femur_lat_r.force.Z	femur_lat_tibia_r.femur_lat_r.torque.X	femur_lat_tibia_r.femur_lat_r.torque.Y	femur_lat_tibia_r.femur_lat_r.torque.Z	aACL_R	pACL_R	aPCL_R	pPCL_R	aMCL_R	mMCL_R	pMCL_R	aLCL_R	mLCL_R	pLCL_R	ground_prescribedForce_fx	ground_prescribedForce_fy	ground_prescribedForce_fz	ground_prescribedForce_px	ground_prescribedForce_py	ground_prescribedForce_pz
      0.54264888	      7.57465873	      5.68415603	      6.08465943	      2.66720460	      3.18788995	      3.20401620	      4.32394222	      3.90889977	      6.17222343	      6.81064510	      1.52198174	      5.63172623	      4.15382246	      2.92833487	      2.46182253	      4.00203450	      3.94062545	      2.24572005	      1.50812043	      3.66793896	      5.57408944	      4.16116528	     22.68096878	     13.00436821	      3.63819827	      2.85970896	      4.11174580	     11.68941116	      9.74695975	     10.35158581	     13.99571956	      1.17388536	      1.44353050	     10.67086338	     12.52468006	      2.91252310	      2.10198818	     13.05028410	      3.74842848	      7.52676932	      9.94494967	      7.77929724	      2.30504812	      7.57465873	      5.68415603	      6.08465943	      2.66720460	      3.18788995	      3.20401620	      8.78419448	      4.09754416	      7.71528544	      7.23896405	      1.52444777	      5.63172623	      4.15382246	      2.92833487	      2.46182253	      4.00203450	      4.10603482	      2.24572005	      1.56361118	      3.66793896	      5.57408944	      4.16116528	     22.68096878	     13.00436821	      3.63819827	      2.85970896	      4.11174580	     10.71130106	      6.61458467	      7.58794394	      8.15894905	     14.05332114	      6.52536511	     31.25149749	     42.42368792	      2.73009896	      2.91845538	      8.48499716	      4.35397722	     12.49557045	      2.01170483	      5.31444468	      1.68852534	     25.08453366	     25.08453366	      9.03070557	      9.03070557	     26.83219023	     26.83219023	     54.25258701	     60.53573409	     18.42184803	     -9.06057419	      1.31980916	     22.37110858	    -54.25258701	    -60.53573409	    -18.42184803	      2.07870093	     -1.60235115	     -0.88094251	     58.24136734	     42.88169045	     13.75072025	     -4.67614336	     -1.33426462	     23.91862316	    -58.24136734	    -42.88169045	    -13.75072025	     -0.53869004	      1.09783110	     -1.09380446	     -1.97954654	     -3.07682813	      0.67736123	     -0.07470053	      0.03942084	     -0.03884887	      1.97954654	      3.07682813	     -0.67736123	      0.33905035	     -0.03475077	      0.83260819	      0.00000000	      0.00000000	      0.00000000	      0.00000000	      0.00000000	      0.00000000	      0.00000000	      0.00000000	      0.00000000	      0.00000000	      0.00000000	      0.00000000	     53.50115867	     22.91882572	     23.22595730	      5.44457798	      0.00000000	      0.00000000	      0.00000000	      0.54458421	      0.00000000	      0.00000000	     95.26279000	    -55.00000000	      0.00000000	      0.03000000	     -0.03000000	      0.00000000
      0.54574933	      7.57351813	      5.68337019	      6.08380778	      2.66685149	      3.18750801	      3.20353472	      4.31688317	      3.90453109	      6.17340845	      6.78056343	      1.49397163	      5.63093856	      4.15327749	      2.92793300	      2.46147663	      4.00141153	      3.94209082	      2.24542085	      1.49991451	      3.66743229	      5.57331712	      4.16057815	     22.67954396	     13.00276613	      3.63770615	      2.85947866	      4.11082611	     11.68206616	      9.72996863	     10.33473271	     13.98754300	      1.95901118	      1.45039037	     10.73573890	     12.61124111	      2.91084503	      2.08600037	     13.06334687	      3.73925237	      7.54201826	      9.94272978	      7.88910005	      2.31152365	      7.57351813	      5.68337019	      6.08380778	      2.66685149	      3.18750801	      3.20353472	      8.78253208	      4.09693306	      7.71390272	      7.23798427	      1.52424687	      5.63093856	      4.15327749	      2.92793300	      2.46147663	      4.00141153	      4.10564959	      2.24542085	      1.56340155	      3.66743229	      5.57331712	      4.16057815	     22.67954396	     13.00276613	      3.63770615	      2.85947866	      4.11082611	     10.70941934	      6.61364937	      7.58685027	      8.15777908	     14.04916395	      6.52343154	     31.24452607	     42.42096251	      2.72781422	      2.91700388	      8.48358142	      4.35312805	     12.49350864	      2.01145628	      5.31435777	      1.68850429	     25.08120518	     25.08120518	      9.02940062	      9.02940062	     26.83101806	     26.83101806	     52.77417613	     59.23314258	     18.05352471	     -8.87711352	      1.28435720	     21.75915779	    -52.77417613	    -59.23314258	    -18.05352471	      2.03449841	     -1.56050721	     -0.85074163	     57.33556912	     42.26502085	     13.59116591	     -4.62467526	     -1.31360455	     23.54680785	    -57.33556912	    -42.26502085	    -13.59116591	     -0.52996507	      1.08043972	     -1.07640645	     -2.37924050	     -3.71079152	      0.70260088	     -0.08801568	      0.04746214	     -0.04658959	      2.37924050	      3.71079152	     -0.70260088	      0.36294978	     -0.04307842	      1.00076067	      0.00000000	      0.00000000	      0.00000000	      0.00000000	      0.00000000	      0.00000000	      0.00000000	      0.00000000	      0.00000000	      0.00000000	      0.00000000	      0.00000000	     53.78490965	     23.23252056	     23.56424504	      6.39603029	      0.00000000	      0.00000000	      0.00000000	      1.57829899	      0.00000000	      0.00000000	     95.26279000	    -55.00000000	      0.00000000	      0.03000000	     -0.03000000	      0.00000000
      0.54884979	      7.57242219	      5.68261511	      6.08298948	      2.66651221	      3.18714103	      3.20307208	      4.32399013	      3.90853712	      6.18595298	      6.81681123	      1.53859920	      5.63018173	      4.15275389	      2.92754686	      2.46114428	      4.00081295	      3.94858244	      2.24513338	      1.50620386	      3.66694546	      5.57257504	      4.16001401	     22.67817493	     13.00122679	      3.63723328	      2.85925739	      4.10994220	     11.69330787	      9.75138795	     10.36018529	     14.02037885	      1.33174962	      1.47097934	     10.83064906	     12.71563907	      2.90913609	      2.07483329	     13.07020540	      3.72680480	      7.55117472	      9.92776957	      7.99482518	      2.31413360	      7.57242219	      5.68261511	      6.08298948	      2.66651221	      3.18714103	      3.20307208	      8.78093472	      4.09634588	      7.71257413	      7.23704284	      1.52405383	      5.63018173	      4.15275389	      2.92754686	      2.46114428	      4.00081295	      4.10527944	      2.24513338	      1.56320012	      3.66694546	      5.57257504	      4.16001401	     22.67817493	     13.00122679	      3.63723328	      2.85925739	      4.10994220	     10.70761128	      6.61275068	      7.58579943	      8.15665492	     14.04516381	      6.52157101	     31.23782591	     42.41834343	      2.72554493	      2.91557193	      8.48222110	      4.35231207	     12.49152632	      2.01121747	      5.31431597	      1.68849613	     25.07800700	     25.07800700	      9.02814675	      9.02814675	     26.82989178	     26.82989178	     53.35199414	     59.68800551	     18.21438343	     -8.95418659	      1.29813829	     21.99852719	    -53.35199414	    -59.68800551	    -18.21438343	      2.05028205	     -1.57671142	     -0.86333199	     58.17190952	     42.88806677	     13.75998444	     -4.67958059	     -1.33294170	     23.89043524	    -58.17190952	    -42.88806677	    -13.75998444	     -0.53910198	      1.09690628	     -1.09216579	     -2.53336728	     -3.95552495	      0.69644694	     -0.09290267	      0.05059499	     -0.04956417	      2.53336728	      3.95552495	     -0.69644694	      0.36581434	     -0.04649307	      1.06559382	      0.00000000	      0.00000000	      0.00000000	      0.00000000	      0.00000000	      0.00000000	      0.00000000	      0.00000000	      0.00000000	      0.00000000	      0.00000000	      0.00000000	     53.74946608	     23.19012634	     23.41283870	      5.80366299	      0.00000000	      0.00000000	      0.00000000	      1.01826610	      0.00000000	      0.00000000	     95.26279000	    -55.00000000	      0.00000000	      0.03000000	     -0.03000000	      0.00000000
      0.55195025	      7.57136916	      5.68188960	      6.08220321	      2.66618620	      3.18678841	      3.20262756	      4.32346297	      3.90784984	      6.19239620	      6.80826274	      1.50187217	      5.62945453	      4.15225078	      2.92717583	      2.46082493	      4.00023782	      3.95240108	      2.24485715	      1.50176572	      3.66647769	      5.57186200	      4.15947195	     22.67685950	     12.99974774	      3.63677893	      2.85904477	      4.10909266	     11.69676713	      9.75180719	     10.36218028	     14.03606569	      1.34897064	      1.48229652	     10.90351100	     12.83015850	      2.90679490	      2.06753725	     13.08436638	      3.71105958	      7.55339707	      9.91790600	      8.09760279	      2.31503920	      7.57136916	      5.68188960	      6.08220321	      2.66618620	      3.18678841	      3.20262756	      8.77939985	      4.09578169	      7.71129753	      7.23613826	      1.52386835	      5.62945453	      4.15225078	      2.92717583	      2.46082493	      4.00023782	      4.10492379	      2.24485715	      1.56300658	      3.66647769	      5.57186200	      4.15947195	     22.67685950	     12.99974774	      3.63677893	      2.85904477	      4.10909266	     10.70587399	      6.61188719	      7.58478974	      8.15557477	     14.04131489	      6.51978080	     31.23138649	     42.41582655	      2.72329008	      2.91415863	      8.48091405	      4.35152800	     12.48962045	      2.01098801	      5.31431769	      1.68850041	     25.07493402	     25.07493402	      9.02694198	      9.02694198	     26.82880959	     26.82880959	     52.63507154	     59.04811642	     18.04140096	     -8.86723287	      1.28098682	     21.70177937	    -52.63507154	    -59.04811642	    -18.04140096	      2.02859416	     -1.55644772	     -0.84875996	     57.89444555	     42.69603896	     13.72049085	     -4.66767118	     -1.32675574	     23.77679396	    -57.89444555	    -42.69603896	    -13.72049085	     -0.53627381	      1.09173784	     -1.08709235	     -2.87269073	     -4.49990130	      0.69075325	     -0.10408016	      0.05757869	     -0.05604143	      2.87269073	      4.49990130	     -0.69075325	      0.37557297	     -0.05401696	      1.20832307	      0.00000000	      0.00000000	      0.00000000	      0.00000000	      0.00000000	      0.00000000	      0.00000000	      0.00000000	      0.00000000	      0.00000000	      0.00000000	      0.00000000	     53.91167312	     23.36573412	     23.58020036	      6.19202892	      0.00000000	      0.00000000	      0.00000000	      1.42889030	      0.00000000	      0.00000000	     95.26279000	    -55.00000000	      0.00000000	      0.03000000	     -0.03000000	      0.00000000
